M48
; DRILL file {KiCad (6.0.1)} date Fri May 20 08:55:57 2022
; FORMAT={-:-/ absolute / inch / decimal}
; #@! TF.CreationDate,2022-05-20T08:55:57-05:00
; #@! TF.GenerationSoftware,Kicad,Pcbnew,(6.0.1)
; #@! TF.FileFunction,Plated,1,2,PTH
FMAT,2
INCH
; #@! TA.AperFunction,Plated,PTH,ViaDrill
T1C0.0157
; #@! TA.AperFunction,Plated,PTH,ComponentDrill
T2C0.0299
; #@! TA.AperFunction,Plated,PTH,ComponentDrill
T3C0.0315
; #@! TA.AperFunction,Plated,PTH,ComponentDrill
T4C0.0394
%
G90
G05
T1
X2.544Y-3.172
X2.544Y-3.85
X2.544Y-4.528
X2.545Y-2.494
X2.545Y-1.816
X2.548Y-3.068
X2.548Y-3.116
X2.548Y-3.746
X2.548Y-3.794
X2.548Y-4.424
X2.548Y-4.472
X2.549Y-2.39
X2.549Y-2.438
X2.549Y-1.712
X2.549Y-1.76
X2.55Y-3.584
X2.55Y-4.262
X2.55Y-4.94
X2.551Y-2.906
X2.551Y-2.228
X2.552Y-3.448
X2.552Y-3.518
X2.552Y-4.126
X2.552Y-4.196
X2.552Y-4.804
X2.552Y-4.874
X2.553Y-2.77
X2.553Y-2.84
X2.553Y-2.092
X2.553Y-2.162
X3.364Y-3.16
X3.364Y-3.838
X3.364Y-4.516
X3.365Y-2.482
X3.365Y-1.804
X3.424Y-3.126
X3.424Y-3.804
X3.424Y-4.482
X3.425Y-2.448
X3.425Y-1.77
X3.428Y-3.434
X3.428Y-4.112
X3.428Y-4.79
X3.429Y-2.756
X3.429Y-2.078
X3.43Y-3.526
X3.43Y-4.204
X3.43Y-4.882
X3.431Y-2.848
X3.431Y-2.17
X3.4383Y-3.2237
X3.4383Y-3.9017
X3.4383Y-4.5797
X3.4393Y-2.5457
X3.4393Y-1.8677
X3.4702Y-3.1499
X3.4702Y-3.8278
X3.4702Y-4.5058
X3.4712Y-2.4718
X3.4712Y-1.7938
X3.536Y-3.148
X3.536Y-3.826
X3.536Y-4.504
X3.537Y-2.47
X3.537Y-1.792
X3.544Y-3.4388
X3.544Y-3.532
X3.544Y-4.1167
X3.544Y-4.21
X3.544Y-4.7947
X3.544Y-4.888
X3.545Y-2.7607
X3.545Y-2.854
X3.545Y-2.0827
X3.545Y-2.176
X3.784Y-3.192
X3.784Y-3.87
X3.784Y-4.548
X3.785Y-2.514
X3.785Y-1.836
X3.824Y-3.2491
X3.824Y-3.9271
X3.824Y-4.6051
X3.825Y-2.5711
X3.825Y-1.8931
X3.842Y-3.438
X3.842Y-4.116
X3.842Y-4.794
X3.843Y-2.76
X3.843Y-2.082
X3.844Y-3.5253
X3.844Y-4.2033
X3.844Y-4.8813
X3.845Y-2.8473
X3.845Y-2.1693
X3.858Y-3.31
X3.858Y-3.988
X3.858Y-4.666
X3.859Y-2.632
X3.859Y-1.954
X3.902Y-3.31
X3.902Y-3.988
X3.902Y-4.666
X3.903Y-2.632
X3.903Y-1.954
X4.658Y-3.124
X4.658Y-3.802
X4.658Y-4.48
X4.659Y-2.446
X4.659Y-1.768
X4.66Y-3.176
X4.66Y-3.854
X4.66Y-4.532
X4.661Y-2.498
X4.661Y-1.82
X4.662Y-3.232
X4.662Y-3.91
X4.662Y-4.588
X4.663Y-2.554
X4.663Y-1.876
X4.676Y-3.468
X4.676Y-4.146
X4.676Y-4.824
X4.677Y-2.79
X4.677Y-2.112
X4.678Y-3.522
X4.678Y-4.2
X4.678Y-4.878
X4.679Y-2.844
X4.679Y-2.166
X4.682Y-3.578
X4.682Y-4.256
X4.682Y-4.934
X4.683Y-2.9
X4.683Y-2.222
T2
X3.0048Y-3.1804
X3.0048Y-3.2804
X3.0048Y-3.3804
X3.0048Y-3.4804
X3.0048Y-3.8584
X3.0048Y-3.9584
X3.0048Y-4.0584
X3.0048Y-4.1584
X3.0048Y-4.5364
X3.0048Y-4.6364
X3.0048Y-4.7364
X3.0048Y-4.8364
X3.0058Y-2.5024
X3.0058Y-2.6024
X3.0058Y-2.7024
X3.0058Y-2.8024
X3.0058Y-1.8244
X3.0058Y-1.9244
X3.0058Y-2.0244
X3.0058Y-2.1244
X3.1048Y-3.2304
X3.1048Y-3.3304
X3.1048Y-3.4304
X3.1048Y-3.5304
X3.1048Y-3.9084
X3.1048Y-4.0084
X3.1048Y-4.1084
X3.1048Y-4.2084
X3.1048Y-4.5864
X3.1048Y-4.6864
X3.1048Y-4.7864
X3.1048Y-4.8864
X3.1058Y-2.5524
X3.1058Y-2.6524
X3.1058Y-2.7524
X3.1058Y-2.8524
X3.1058Y-1.8744
X3.1058Y-1.9744
X3.1058Y-2.0744
X3.1058Y-2.1744
X4.0832Y-3.1776
X4.0832Y-3.2776
X4.0832Y-3.3776
X4.0832Y-3.4776
X4.0832Y-3.8556
X4.0832Y-3.9556
X4.0832Y-4.0556
X4.0832Y-4.1556
X4.0832Y-4.5336
X4.0832Y-4.6336
X4.0832Y-4.7336
X4.0832Y-4.8336
X4.0842Y-2.4996
X4.0842Y-2.5996
X4.0842Y-2.6996
X4.0842Y-2.7996
X4.0842Y-1.8216
X4.0842Y-1.9216
X4.0842Y-2.0216
X4.0842Y-2.1216
X4.1832Y-3.2276
X4.1832Y-3.3276
X4.1832Y-3.4276
X4.1832Y-3.5276
X4.1832Y-3.9056
X4.1832Y-4.0056
X4.1832Y-4.1056
X4.1832Y-4.2056
X4.1832Y-4.5836
X4.1832Y-4.6836
X4.1832Y-4.7836
X4.1832Y-4.8836
X4.1842Y-2.5496
X4.1842Y-2.6496
X4.1842Y-2.7496
X4.1842Y-2.8496
X4.1842Y-1.8716
X4.1842Y-1.9716
X4.1842Y-2.0716
X4.1842Y-2.1716
T3
X3.329Y-3.074
X3.329Y-3.374
X3.329Y-3.752
X3.329Y-4.052
X3.329Y-4.43
X3.329Y-4.73
X3.33Y-2.396
X3.33Y-2.696
X3.33Y-1.718
X3.33Y-2.018
X3.429Y-3.074
X3.429Y-3.374
X3.429Y-3.752
X3.429Y-4.052
X3.429Y-4.43
X3.429Y-4.73
X3.43Y-2.396
X3.43Y-2.696
X3.43Y-1.718
X3.43Y-2.018
X3.529Y-3.074
X3.529Y-3.374
X3.529Y-3.752
X3.529Y-4.052
X3.529Y-4.43
X3.529Y-4.73
X3.53Y-2.396
X3.53Y-2.696
X3.53Y-1.718
X3.53Y-2.018
X3.629Y-3.074
X3.629Y-3.374
X3.629Y-3.752
X3.629Y-4.052
X3.629Y-4.43
X3.629Y-4.73
X3.63Y-2.396
X3.63Y-2.696
X3.63Y-1.718
X3.63Y-2.018
X3.729Y-3.074
X3.729Y-3.374
X3.729Y-3.752
X3.729Y-4.052
X3.729Y-4.43
X3.729Y-4.73
X3.73Y-2.396
X3.73Y-2.696
X3.73Y-1.718
X3.73Y-2.018
X3.829Y-3.074
X3.829Y-3.374
X3.829Y-3.752
X3.829Y-4.052
X3.829Y-4.43
X3.829Y-4.73
X3.83Y-2.396
X3.83Y-2.696
X3.83Y-1.718
X3.83Y-2.018
T4
X3.244Y-3.604
X3.244Y-4.282
X3.244Y-4.96
X3.245Y-2.926
X3.245Y-2.248
X3.344Y-3.604
X3.344Y-4.282
X3.344Y-4.96
X3.345Y-2.926
X3.345Y-2.248
X3.444Y-3.604
X3.444Y-4.282
X3.444Y-4.96
X3.445Y-2.926
X3.445Y-2.248
X3.544Y-3.604
X3.544Y-4.282
X3.544Y-4.96
X3.545Y-2.926
X3.545Y-2.248
X3.644Y-3.604
X3.644Y-4.282
X3.644Y-4.96
X3.645Y-2.926
X3.645Y-2.248
X3.744Y-3.604
X3.744Y-4.282
X3.744Y-4.96
X3.745Y-2.926
X3.745Y-2.248
X3.844Y-3.604
X3.844Y-4.282
X3.844Y-4.96
X3.845Y-2.926
X3.845Y-2.248
X3.944Y-3.604
X3.944Y-4.282
X3.944Y-4.96
X3.945Y-2.926
X3.945Y-2.248
T0
M30
