%TF.GenerationSoftware,KiCad,Pcbnew,(6.0.1)*%
%TF.CreationDate,2022-05-20T08:55:55-05:00*%
%TF.ProjectId,modulo_2,6d6f6475-6c6f-45f3-922e-6b696361645f,rev?*%
%TF.SameCoordinates,Original*%
%TF.FileFunction,Soldermask,Top*%
%TF.FilePolarity,Negative*%
%FSLAX46Y46*%
G04 Gerber Fmt 4.6, Leading zero omitted, Abs format (unit mm)*
G04 Created by KiCad (PCBNEW (6.0.1)) date 2022-05-20 08:55:55*
%MOMM*%
%LPD*%
G01*
G04 APERTURE LIST*
%ADD10R,1.600000X1.600000*%
%ADD11O,1.600000X1.600000*%
%ADD12R,1.700000X1.700000*%
%ADD13O,1.700000X1.700000*%
%ADD14C,3.200000*%
%ADD15R,1.500000X1.500000*%
%ADD16C,1.500000*%
G04 APERTURE END LIST*
D10*
%TO.C,SW2*%
X84556600Y-102920800D03*
D11*
X87096600Y-102920800D03*
X89636600Y-102920800D03*
X92176600Y-102920800D03*
X94716600Y-102920800D03*
X97256600Y-102920800D03*
X97256600Y-95300800D03*
X94716600Y-95300800D03*
X92176600Y-95300800D03*
X89636600Y-95300800D03*
X87096600Y-95300800D03*
X84556600Y-95300800D03*
%TD*%
D12*
%TO.C,J1*%
X100202957Y-74320400D03*
D13*
X97662957Y-74320400D03*
X95122957Y-74320400D03*
X92582957Y-74320400D03*
X90042957Y-74320400D03*
X87502957Y-74320400D03*
X84962957Y-74320400D03*
X82422957Y-74320400D03*
%TD*%
D14*
%TO.C,Entrada*%
X69971600Y-90943283D03*
X69971600Y-79513283D03*
D15*
X76321600Y-80783283D03*
D16*
X78861600Y-82053283D03*
X76321600Y-83323283D03*
X78861600Y-84593283D03*
X76321600Y-85863283D03*
X78861600Y-87133283D03*
X76321600Y-88403283D03*
X78861600Y-89673283D03*
%TD*%
D10*
%TO.C,SW2*%
X84581957Y-68478400D03*
D11*
X87121957Y-68478400D03*
X89661957Y-68478400D03*
X92201957Y-68478400D03*
X94741957Y-68478400D03*
X97281957Y-68478400D03*
X97281957Y-60858400D03*
X94741957Y-60858400D03*
X92201957Y-60858400D03*
X89661957Y-60858400D03*
X87121957Y-60858400D03*
X84581957Y-60858400D03*
%TD*%
D10*
%TO.C,SW2*%
X84556600Y-120142000D03*
D11*
X87096600Y-120142000D03*
X89636600Y-120142000D03*
X92176600Y-120142000D03*
X94716600Y-120142000D03*
X97256600Y-120142000D03*
X97256600Y-112522000D03*
X94716600Y-112522000D03*
X92176600Y-112522000D03*
X89636600Y-112522000D03*
X87096600Y-112522000D03*
X84556600Y-112522000D03*
%TD*%
D14*
%TO.C,Salida*%
X112603600Y-79442283D03*
X112603600Y-90872283D03*
D15*
X106253600Y-89602283D03*
D16*
X103713600Y-88332283D03*
X106253600Y-87062283D03*
X103713600Y-85792283D03*
X106253600Y-84522283D03*
X103713600Y-83252283D03*
X106253600Y-81982283D03*
X103713600Y-80712283D03*
%TD*%
D14*
%TO.C,Entrada*%
X69971600Y-113954500D03*
X69971600Y-125384500D03*
D15*
X76321600Y-115224500D03*
D16*
X78861600Y-116494500D03*
X76321600Y-117764500D03*
X78861600Y-119034500D03*
X76321600Y-120304500D03*
X78861600Y-121574500D03*
X76321600Y-122844500D03*
X78861600Y-124114500D03*
%TD*%
D12*
%TO.C,J1*%
X100177600Y-91542783D03*
D13*
X97637600Y-91542783D03*
X95097600Y-91542783D03*
X92557600Y-91542783D03*
X90017600Y-91542783D03*
X87477600Y-91542783D03*
X84937600Y-91542783D03*
X82397600Y-91542783D03*
%TD*%
D14*
%TO.C,Entrada*%
X69996957Y-62290900D03*
X69996957Y-73720900D03*
D15*
X76346957Y-63560900D03*
D16*
X78886957Y-64830900D03*
X76346957Y-66100900D03*
X78886957Y-67370900D03*
X76346957Y-68640900D03*
X78886957Y-69910900D03*
X76346957Y-71180900D03*
X78886957Y-72450900D03*
%TD*%
D14*
%TO.C,Entrada*%
X69971600Y-96733300D03*
X69971600Y-108163300D03*
D15*
X76321600Y-98003300D03*
D16*
X78861600Y-99273300D03*
X76321600Y-100543300D03*
X78861600Y-101813300D03*
X76321600Y-103083300D03*
X78861600Y-104353300D03*
X76321600Y-105623300D03*
X78861600Y-106893300D03*
%TD*%
D12*
%TO.C,J1*%
X100177600Y-108762800D03*
D13*
X97637600Y-108762800D03*
X95097600Y-108762800D03*
X92557600Y-108762800D03*
X90017600Y-108762800D03*
X87477600Y-108762800D03*
X84937600Y-108762800D03*
X82397600Y-108762800D03*
%TD*%
D12*
%TO.C,J1*%
X100177600Y-125984000D03*
D13*
X97637600Y-125984000D03*
X95097600Y-125984000D03*
X92557600Y-125984000D03*
X90017600Y-125984000D03*
X87477600Y-125984000D03*
X84937600Y-125984000D03*
X82397600Y-125984000D03*
%TD*%
D14*
%TO.C,Salida*%
X112629000Y-56428700D03*
X112629000Y-44998700D03*
D15*
X106279000Y-55158700D03*
D16*
X103739000Y-53888700D03*
X106279000Y-52618700D03*
X103739000Y-51348700D03*
X106279000Y-50078700D03*
X103739000Y-48808700D03*
X106279000Y-47538700D03*
X103739000Y-46268700D03*
%TD*%
D14*
%TO.C,Salida*%
X112603600Y-96662300D03*
X112603600Y-108092300D03*
D15*
X106253600Y-106822300D03*
D16*
X103713600Y-105552300D03*
X106253600Y-104282300D03*
X103713600Y-103012300D03*
X106253600Y-101742300D03*
X103713600Y-100472300D03*
X106253600Y-99202300D03*
X103713600Y-97932300D03*
%TD*%
D14*
%TO.C,Salida*%
X112603600Y-113883500D03*
X112603600Y-125313500D03*
D15*
X106253600Y-124043500D03*
D16*
X103713600Y-122773500D03*
X106253600Y-121503500D03*
X103713600Y-120233500D03*
X106253600Y-118963500D03*
X103713600Y-117693500D03*
X106253600Y-116423500D03*
X103713600Y-115153500D03*
%TD*%
D14*
%TO.C,Entrada*%
X69997000Y-45069700D03*
X69997000Y-56499700D03*
D15*
X76347000Y-46339700D03*
D16*
X78887000Y-47609700D03*
X76347000Y-48879700D03*
X78887000Y-50149700D03*
X76347000Y-51419700D03*
X78887000Y-52689700D03*
X76347000Y-53959700D03*
X78887000Y-55229700D03*
%TD*%
D10*
%TO.C,SW2*%
X84556600Y-85700783D03*
D11*
X87096600Y-85700783D03*
X89636600Y-85700783D03*
X92176600Y-85700783D03*
X94716600Y-85700783D03*
X97256600Y-85700783D03*
X97256600Y-78080783D03*
X94716600Y-78080783D03*
X92176600Y-78080783D03*
X89636600Y-78080783D03*
X87096600Y-78080783D03*
X84556600Y-78080783D03*
%TD*%
D12*
%TO.C,J1*%
X100203000Y-57099200D03*
D13*
X97663000Y-57099200D03*
X95123000Y-57099200D03*
X92583000Y-57099200D03*
X90043000Y-57099200D03*
X87503000Y-57099200D03*
X84963000Y-57099200D03*
X82423000Y-57099200D03*
%TD*%
D10*
%TO.C,SW2*%
X84582000Y-51257200D03*
D11*
X87122000Y-51257200D03*
X89662000Y-51257200D03*
X92202000Y-51257200D03*
X94742000Y-51257200D03*
X97282000Y-51257200D03*
X97282000Y-43637200D03*
X94742000Y-43637200D03*
X92202000Y-43637200D03*
X89662000Y-43637200D03*
X87122000Y-43637200D03*
X84582000Y-43637200D03*
%TD*%
D14*
%TO.C,Salida*%
X112628957Y-62219900D03*
X112628957Y-73649900D03*
D15*
X106278957Y-72379900D03*
D16*
X103738957Y-71109900D03*
X106278957Y-69839900D03*
X103738957Y-68569900D03*
X106278957Y-67299900D03*
X103738957Y-66029900D03*
X106278957Y-64759900D03*
X103738957Y-63489900D03*
%TD*%
M02*
