M48
; DRILL file {KiCad (6.0.1)} date Sat May 21 12:22:51 2022
; FORMAT={-:-/ absolute / inch / decimal}
; #@! TF.CreationDate,2022-05-21T12:22:51-05:00
; #@! TF.GenerationSoftware,Kicad,Pcbnew,(6.0.1)
; #@! TF.FileFunction,NonPlated,1,2,NPTH
FMAT,2
INCH
; #@! TA.AperFunction,NonPlated,NPTH,ComponentDrill
T1C0.1260
%
G90
G05
T1
X2.7548Y-3.1304
X2.7548Y-3.5804
X2.7548Y-3.8084
X2.7548Y-4.2584
X2.7548Y-4.4864
X2.7548Y-4.9364
X2.7558Y-2.4524
X2.7558Y-2.9024
X2.7558Y-1.7744
X2.7558Y-2.2244
X4.4332Y-3.1276
X4.4332Y-3.5776
X4.4332Y-3.8056
X4.4332Y-4.2556
X4.4332Y-4.4836
X4.4332Y-4.9336
X4.4342Y-2.4496
X4.4342Y-2.8996
X4.4342Y-1.7716
X4.4342Y-2.2216
X4.8716Y-1.9848
X4.8744Y-3.6632
X5.3216Y-1.9848
X5.3244Y-3.6632
X5.5497Y-1.9849
X5.5525Y-3.6634
X5.9997Y-1.9849
X6.0025Y-3.6634
T0
M30
