%TF.GenerationSoftware,KiCad,Pcbnew,(6.0.1)*%
%TF.CreationDate,2022-05-22T10:14:18-05:00*%
%TF.ProjectId,modulo,6d6f6475-6c6f-42e6-9b69-6361645f7063,rev?*%
%TF.SameCoordinates,Original*%
%TF.FileFunction,Soldermask,Top*%
%TF.FilePolarity,Negative*%
%FSLAX46Y46*%
G04 Gerber Fmt 4.6, Leading zero omitted, Abs format (unit mm)*
G04 Created by KiCad (PCBNEW (6.0.1)) date 2022-05-22 10:14:18*
%MOMM*%
%LPD*%
G01*
G04 APERTURE LIST*
%ADD10C,3.200000*%
%ADD11R,1.500000X1.500000*%
%ADD12C,1.500000*%
%ADD13R,1.600000X1.600000*%
%ADD14O,1.600000X1.600000*%
%ADD15R,1.700000X1.700000*%
%ADD16O,1.700000X1.700000*%
G04 APERTURE END LIST*
D10*
%TO.C,Entrada*%
X129255200Y-62290900D03*
X129255200Y-73720900D03*
D11*
X135605200Y-63560900D03*
D12*
X138145200Y-64830900D03*
X135605200Y-66100900D03*
X138145200Y-67370900D03*
X135605200Y-68640900D03*
X138145200Y-69910900D03*
X135605200Y-71180900D03*
X138145200Y-72450900D03*
%TD*%
D13*
%TO.C,SW2*%
X84556600Y-102920800D03*
D14*
X87096600Y-102920800D03*
X89636600Y-102920800D03*
X92176600Y-102920800D03*
X94716600Y-102920800D03*
X97256600Y-102920800D03*
X97256600Y-95300800D03*
X94716600Y-95300800D03*
X92176600Y-95300800D03*
X89636600Y-95300800D03*
X87096600Y-95300800D03*
X84556600Y-95300800D03*
%TD*%
D13*
%TO.C,SW2*%
X143840200Y-85699600D03*
D14*
X146380200Y-85699600D03*
X148920200Y-85699600D03*
X151460200Y-85699600D03*
X154000200Y-85699600D03*
X156540200Y-85699600D03*
X156540200Y-78079600D03*
X154000200Y-78079600D03*
X151460200Y-78079600D03*
X148920200Y-78079600D03*
X146380200Y-78079600D03*
X143840200Y-78079600D03*
%TD*%
D15*
%TO.C,J1*%
X159461200Y-74320400D03*
D16*
X156921200Y-74320400D03*
X154381200Y-74320400D03*
X151841200Y-74320400D03*
X149301200Y-74320400D03*
X146761200Y-74320400D03*
X144221200Y-74320400D03*
X141681200Y-74320400D03*
%TD*%
D15*
%TO.C,J1*%
X100202957Y-74320400D03*
D16*
X97662957Y-74320400D03*
X95122957Y-74320400D03*
X92582957Y-74320400D03*
X90042957Y-74320400D03*
X87502957Y-74320400D03*
X84962957Y-74320400D03*
X82422957Y-74320400D03*
%TD*%
D13*
%TO.C,SW2*%
X156997400Y-119075200D03*
D14*
X154457400Y-119075200D03*
X151917400Y-119075200D03*
X149377400Y-119075200D03*
X146837400Y-119075200D03*
X144297400Y-119075200D03*
X144297400Y-126695200D03*
X146837400Y-126695200D03*
X149377400Y-126695200D03*
X151917400Y-126695200D03*
X154457400Y-126695200D03*
X156997400Y-126695200D03*
%TD*%
D10*
%TO.C,Entrada*%
X69971600Y-90943283D03*
X69971600Y-79513283D03*
D11*
X76321600Y-80783283D03*
D12*
X78861600Y-82053283D03*
X76321600Y-83323283D03*
X78861600Y-84593283D03*
X76321600Y-85863283D03*
X78861600Y-87133283D03*
X76321600Y-88403283D03*
X78861600Y-89673283D03*
%TD*%
D13*
%TO.C,SW2*%
X84581957Y-68478400D03*
D14*
X87121957Y-68478400D03*
X89661957Y-68478400D03*
X92201957Y-68478400D03*
X94741957Y-68478400D03*
X97281957Y-68478400D03*
X97281957Y-60858400D03*
X94741957Y-60858400D03*
X92201957Y-60858400D03*
X89661957Y-60858400D03*
X87121957Y-60858400D03*
X84581957Y-60858400D03*
%TD*%
D13*
%TO.C,SW2*%
X84556600Y-120142000D03*
D14*
X87096600Y-120142000D03*
X89636600Y-120142000D03*
X92176600Y-120142000D03*
X94716600Y-120142000D03*
X97256600Y-120142000D03*
X97256600Y-112522000D03*
X94716600Y-112522000D03*
X92176600Y-112522000D03*
X89636600Y-112522000D03*
X87096600Y-112522000D03*
X84556600Y-112522000D03*
%TD*%
D10*
%TO.C,Salida*%
X112603600Y-79442283D03*
X112603600Y-90872283D03*
D11*
X106253600Y-89602283D03*
D12*
X103713600Y-88332283D03*
X106253600Y-87062283D03*
X103713600Y-85792283D03*
X106253600Y-84522283D03*
X103713600Y-83252283D03*
X106253600Y-81982283D03*
X103713600Y-80712283D03*
%TD*%
D13*
%TO.C,SW2*%
X156999522Y-101913988D03*
D14*
X154459522Y-101913988D03*
X151919522Y-101913988D03*
X149379522Y-101913988D03*
X146839522Y-101913988D03*
X144299522Y-101913988D03*
X144299522Y-109533988D03*
X146839522Y-109533988D03*
X149379522Y-109533988D03*
X151919522Y-109533988D03*
X154459522Y-109533988D03*
X156999522Y-109533988D03*
%TD*%
D10*
%TO.C,Entrada*%
X69971600Y-113954500D03*
X69971600Y-125384500D03*
D11*
X76321600Y-115224500D03*
D12*
X78861600Y-116494500D03*
X76321600Y-117764500D03*
X78861600Y-119034500D03*
X76321600Y-120304500D03*
X78861600Y-121574500D03*
X76321600Y-122844500D03*
X78861600Y-124114500D03*
%TD*%
D15*
%TO.C,J1*%
X100177600Y-91542783D03*
D16*
X97637600Y-91542783D03*
X95097600Y-91542783D03*
X92557600Y-91542783D03*
X90017600Y-91542783D03*
X87477600Y-91542783D03*
X84937600Y-91542783D03*
X82397600Y-91542783D03*
%TD*%
D15*
%TO.C,J1*%
X141376400Y-113233200D03*
D16*
X143916400Y-113233200D03*
X146456400Y-113233200D03*
X148996400Y-113233200D03*
X151536400Y-113233200D03*
X154076400Y-113233200D03*
X156616400Y-113233200D03*
X159156400Y-113233200D03*
%TD*%
D10*
%TO.C,Entrada*%
X69996957Y-62290900D03*
X69996957Y-73720900D03*
D11*
X76346957Y-63560900D03*
D12*
X78886957Y-64830900D03*
X76346957Y-66100900D03*
X78886957Y-67370900D03*
X76346957Y-68640900D03*
X78886957Y-69910900D03*
X76346957Y-71180900D03*
X78886957Y-72450900D03*
%TD*%
D15*
%TO.C,J1*%
X141582584Y-44400292D03*
D16*
X144122584Y-44400292D03*
X146662584Y-44400292D03*
X149202584Y-44400292D03*
X151742584Y-44400292D03*
X154282584Y-44400292D03*
X156822584Y-44400292D03*
X159362584Y-44400292D03*
%TD*%
D10*
%TO.C,Entrada*%
X69971600Y-96733300D03*
X69971600Y-108163300D03*
D11*
X76321600Y-98003300D03*
D12*
X78861600Y-99273300D03*
X76321600Y-100543300D03*
X78861600Y-101813300D03*
X76321600Y-103083300D03*
X78861600Y-104353300D03*
X76321600Y-105623300D03*
X78861600Y-106893300D03*
%TD*%
D15*
%TO.C,J1*%
X100177600Y-108762800D03*
D16*
X97637600Y-108762800D03*
X95097600Y-108762800D03*
X92557600Y-108762800D03*
X90017600Y-108762800D03*
X87477600Y-108762800D03*
X84937600Y-108762800D03*
X82397600Y-108762800D03*
%TD*%
D15*
%TO.C,J1*%
X100177600Y-125984000D03*
D16*
X97637600Y-125984000D03*
X95097600Y-125984000D03*
X92557600Y-125984000D03*
X90017600Y-125984000D03*
X87477600Y-125984000D03*
X84937600Y-125984000D03*
X82397600Y-125984000D03*
%TD*%
D10*
%TO.C,Salida*%
X128952522Y-96742488D03*
X128952522Y-108172488D03*
D11*
X135302522Y-98012488D03*
D12*
X137842522Y-99282488D03*
X135302522Y-100552488D03*
X137842522Y-101822488D03*
X135302522Y-103092488D03*
X137842522Y-104362488D03*
X135302522Y-105632488D03*
X137842522Y-106902488D03*
%TD*%
D10*
%TO.C,Salida*%
X112629000Y-56428700D03*
X112629000Y-44998700D03*
D11*
X106279000Y-55158700D03*
D12*
X103739000Y-53888700D03*
X106279000Y-52618700D03*
X103739000Y-51348700D03*
X106279000Y-50078700D03*
X103739000Y-48808700D03*
X106279000Y-47538700D03*
X103739000Y-46268700D03*
%TD*%
D10*
%TO.C,Salida*%
X112603600Y-96662300D03*
X112603600Y-108092300D03*
D11*
X106253600Y-106822300D03*
D12*
X103713600Y-105552300D03*
X106253600Y-104282300D03*
X103713600Y-103012300D03*
X106253600Y-101742300D03*
X103713600Y-100472300D03*
X106253600Y-99202300D03*
X103713600Y-97932300D03*
%TD*%
D10*
%TO.C,Salida*%
X112603600Y-113883500D03*
X112603600Y-125313500D03*
D11*
X106253600Y-124043500D03*
D12*
X103713600Y-122773500D03*
X106253600Y-121503500D03*
X103713600Y-120233500D03*
X106253600Y-118963500D03*
X103713600Y-117693500D03*
X106253600Y-116423500D03*
X103713600Y-115153500D03*
%TD*%
D13*
%TO.C,SW2*%
X157203584Y-50242292D03*
D14*
X154663584Y-50242292D03*
X152123584Y-50242292D03*
X149583584Y-50242292D03*
X147043584Y-50242292D03*
X144503584Y-50242292D03*
X144503584Y-57862292D03*
X147043584Y-57862292D03*
X149583584Y-57862292D03*
X152123584Y-57862292D03*
X154663584Y-57862292D03*
X157203584Y-57862292D03*
%TD*%
D10*
%TO.C,Entrada*%
X69997000Y-45069700D03*
X69997000Y-56499700D03*
D11*
X76347000Y-46339700D03*
D12*
X78887000Y-47609700D03*
X76347000Y-48879700D03*
X78887000Y-50149700D03*
X76347000Y-51419700D03*
X78887000Y-52689700D03*
X76347000Y-53959700D03*
X78887000Y-55229700D03*
%TD*%
D13*
%TO.C,SW2*%
X84556600Y-85700783D03*
D14*
X87096600Y-85700783D03*
X89636600Y-85700783D03*
X92176600Y-85700783D03*
X94716600Y-85700783D03*
X97256600Y-85700783D03*
X97256600Y-78080783D03*
X94716600Y-78080783D03*
X92176600Y-78080783D03*
X89636600Y-78080783D03*
X87096600Y-78080783D03*
X84556600Y-78080783D03*
%TD*%
D10*
%TO.C,Entrada*%
X129255200Y-79512100D03*
X129255200Y-90942100D03*
D11*
X135605200Y-80782100D03*
D12*
X138145200Y-82052100D03*
X135605200Y-83322100D03*
X138145200Y-84592100D03*
X135605200Y-85862100D03*
X138145200Y-87132100D03*
X135605200Y-88402100D03*
X138145200Y-89672100D03*
%TD*%
D10*
%TO.C,Salida*%
X129156584Y-45070792D03*
X129156584Y-56500792D03*
D11*
X135506584Y-46340792D03*
D12*
X138046584Y-47610792D03*
X135506584Y-48880792D03*
X138046584Y-50150792D03*
X135506584Y-51420792D03*
X138046584Y-52690792D03*
X135506584Y-53960792D03*
X138046584Y-55230792D03*
%TD*%
D15*
%TO.C,J1*%
X100203000Y-57099200D03*
D16*
X97663000Y-57099200D03*
X95123000Y-57099200D03*
X92583000Y-57099200D03*
X90043000Y-57099200D03*
X87503000Y-57099200D03*
X84963000Y-57099200D03*
X82423000Y-57099200D03*
%TD*%
D10*
%TO.C,Salida*%
X128950400Y-113903700D03*
X128950400Y-125333700D03*
D11*
X135300400Y-115173700D03*
D12*
X137840400Y-116443700D03*
X135300400Y-117713700D03*
X137840400Y-118983700D03*
X135300400Y-120253700D03*
X137840400Y-121523700D03*
X135300400Y-122793700D03*
X137840400Y-124063700D03*
%TD*%
D15*
%TO.C,J1*%
X159461200Y-91541600D03*
D16*
X156921200Y-91541600D03*
X154381200Y-91541600D03*
X151841200Y-91541600D03*
X149301200Y-91541600D03*
X146761200Y-91541600D03*
X144221200Y-91541600D03*
X141681200Y-91541600D03*
%TD*%
D15*
%TO.C,J1*%
X141378522Y-96071988D03*
D16*
X143918522Y-96071988D03*
X146458522Y-96071988D03*
X148998522Y-96071988D03*
X151538522Y-96071988D03*
X154078522Y-96071988D03*
X156618522Y-96071988D03*
X159158522Y-96071988D03*
%TD*%
D13*
%TO.C,SW2*%
X84582000Y-51257200D03*
D14*
X87122000Y-51257200D03*
X89662000Y-51257200D03*
X92202000Y-51257200D03*
X94742000Y-51257200D03*
X97282000Y-51257200D03*
X97282000Y-43637200D03*
X94742000Y-43637200D03*
X92202000Y-43637200D03*
X89662000Y-43637200D03*
X87122000Y-43637200D03*
X84582000Y-43637200D03*
%TD*%
D10*
%TO.C,Salida*%
X112628957Y-62219900D03*
X112628957Y-73649900D03*
D11*
X106278957Y-72379900D03*
D12*
X103738957Y-71109900D03*
X106278957Y-69839900D03*
X103738957Y-68569900D03*
X106278957Y-67299900D03*
X103738957Y-66029900D03*
X106278957Y-64759900D03*
X103738957Y-63489900D03*
%TD*%
D13*
%TO.C,SW2*%
X143840200Y-68478400D03*
D14*
X146380200Y-68478400D03*
X148920200Y-68478400D03*
X151460200Y-68478400D03*
X154000200Y-68478400D03*
X156540200Y-68478400D03*
X156540200Y-60858400D03*
X154000200Y-60858400D03*
X151460200Y-60858400D03*
X148920200Y-60858400D03*
X146380200Y-60858400D03*
X143840200Y-60858400D03*
%TD*%
M02*
