M48
; DRILL file {KiCad (6.0.1)} date Sun May 22 10:14:20 2022
; FORMAT={-:-/ absolute / inch / decimal}
; #@! TF.CreationDate,2022-05-22T10:14:20-05:00
; #@! TF.GenerationSoftware,Kicad,Pcbnew,(6.0.1)
; #@! TF.FileFunction,Plated,1,2,PTH
FMAT,2
INCH
; #@! TA.AperFunction,Plated,PTH,ViaDrill
T1C0.0157
; #@! TA.AperFunction,Plated,PTH,ComponentDrill
T2C0.0299
; #@! TA.AperFunction,Plated,PTH,ComponentDrill
T3C0.0315
; #@! TA.AperFunction,Plated,PTH,ComponentDrill
T4C0.0394
%
G90
G05
T1
X2.544Y-3.172
X2.544Y-3.85
X2.544Y-4.528
X2.545Y-2.494
X2.545Y-1.816
X2.548Y-3.068
X2.548Y-3.116
X2.548Y-3.746
X2.548Y-3.794
X2.548Y-4.424
X2.548Y-4.472
X2.549Y-2.39
X2.549Y-2.438
X2.549Y-1.712
X2.549Y-1.76
X2.55Y-3.584
X2.55Y-4.262
X2.55Y-4.94
X2.551Y-2.906
X2.551Y-2.228
X2.552Y-3.448
X2.552Y-3.518
X2.552Y-4.126
X2.552Y-4.196
X2.552Y-4.804
X2.552Y-4.874
X2.553Y-2.77
X2.553Y-2.84
X2.553Y-2.092
X2.553Y-2.162
X3.364Y-3.16
X3.364Y-3.838
X3.364Y-4.516
X3.365Y-2.482
X3.365Y-1.804
X3.424Y-3.126
X3.424Y-3.804
X3.424Y-4.482
X3.425Y-2.448
X3.425Y-1.77
X3.428Y-3.434
X3.428Y-4.112
X3.428Y-4.79
X3.429Y-2.756
X3.429Y-2.078
X3.43Y-3.526
X3.43Y-4.204
X3.43Y-4.882
X3.431Y-2.848
X3.431Y-2.17
X3.4383Y-3.2237
X3.4383Y-3.9017
X3.4383Y-4.5797
X3.4393Y-2.5457
X3.4393Y-1.8677
X3.4702Y-3.1499
X3.4702Y-3.8278
X3.4702Y-4.5058
X3.4712Y-2.4718
X3.4712Y-1.7938
X3.536Y-3.148
X3.536Y-3.826
X3.536Y-4.504
X3.537Y-2.47
X3.537Y-1.792
X3.544Y-3.4388
X3.544Y-3.532
X3.544Y-4.1167
X3.544Y-4.21
X3.544Y-4.7947
X3.544Y-4.888
X3.545Y-2.7607
X3.545Y-2.854
X3.545Y-2.0827
X3.545Y-2.176
X3.784Y-3.192
X3.784Y-3.87
X3.784Y-4.548
X3.785Y-2.514
X3.785Y-1.836
X3.824Y-3.2491
X3.824Y-3.9271
X3.824Y-4.6051
X3.825Y-2.5711
X3.825Y-1.8931
X3.842Y-3.438
X3.842Y-4.116
X3.842Y-4.794
X3.843Y-2.76
X3.843Y-2.082
X3.844Y-3.5253
X3.844Y-4.2033
X3.844Y-4.8813
X3.845Y-2.8473
X3.845Y-2.1693
X3.858Y-3.31
X3.858Y-3.988
X3.858Y-4.666
X3.859Y-2.632
X3.859Y-1.954
X3.902Y-3.31
X3.902Y-3.988
X3.902Y-4.666
X3.903Y-2.632
X3.903Y-1.954
X4.658Y-3.124
X4.658Y-3.802
X4.658Y-4.48
X4.659Y-2.446
X4.659Y-1.768
X4.66Y-3.176
X4.66Y-3.854
X4.66Y-4.532
X4.661Y-2.498
X4.661Y-1.82
X4.662Y-3.232
X4.662Y-3.91
X4.662Y-4.588
X4.663Y-2.554
X4.663Y-1.876
X4.676Y-3.468
X4.676Y-4.146
X4.676Y-4.824
X4.677Y-2.79
X4.677Y-2.112
X4.678Y-3.522
X4.678Y-4.2
X4.678Y-4.878
X4.679Y-2.844
X4.679Y-2.166
X4.682Y-3.578
X4.682Y-4.256
X4.682Y-4.934
X4.683Y-2.9
X4.683Y-2.222
X4.828Y-4.484
X4.8281Y-3.8084
X4.832Y-4.54
X4.8321Y-3.8644
X4.834Y-4.594
X4.8341Y-3.9184
X4.8361Y-1.774
X4.8401Y-1.83
X4.8421Y-1.884
X4.848Y-4.83
X4.8481Y-4.1544
X4.85Y-4.886
X4.8501Y-4.2104
X4.852Y-4.938
X4.8521Y-4.2624
X4.8561Y-2.12
X4.8581Y-2.176
X4.8601Y-2.228
X4.878Y-2.494
X4.878Y-3.172
X4.882Y-2.39
X4.882Y-2.438
X4.882Y-3.068
X4.882Y-3.116
X4.884Y-2.906
X4.884Y-3.584
X4.886Y-2.77
X4.886Y-2.84
X4.886Y-3.448
X4.886Y-3.518
X5.608Y-4.752
X5.6081Y-4.0764
X5.6161Y-2.042
X5.652Y-4.752
X5.6521Y-4.0764
X5.6601Y-2.042
X5.666Y-4.5367
X5.6661Y-3.8611
X5.668Y-4.624
X5.6681Y-3.9484
X5.6741Y-1.8268
X5.6761Y-1.914
X5.686Y-4.8129
X5.6861Y-4.1373
X5.6941Y-2.103
X5.698Y-2.482
X5.698Y-3.16
X5.726Y-4.87
X5.7261Y-4.1944
X5.7341Y-2.16
X5.758Y-2.448
X5.758Y-3.126
X5.762Y-2.756
X5.762Y-3.434
X5.764Y-2.848
X5.764Y-3.526
X5.7723Y-2.5457
X5.7723Y-3.2237
X5.8042Y-2.4718
X5.8042Y-3.1498
X5.87Y-2.47
X5.87Y-3.148
X5.878Y-2.7607
X5.878Y-2.854
X5.878Y-3.4387
X5.878Y-3.532
X5.966Y-4.53
X5.966Y-4.6233
X5.9661Y-3.8544
X5.9661Y-3.9476
X5.974Y-4.914
X5.9741Y-4.2384
X5.9741Y-1.82
X5.9741Y-1.9133
X5.9821Y-2.204
X6.0398Y-4.9122
X6.0399Y-4.2365
X6.0479Y-2.2022
X6.0717Y-4.8383
X6.0718Y-4.1627
X6.0798Y-2.1284
X6.08Y-4.536
X6.0801Y-3.8604
X6.082Y-4.628
X6.0821Y-3.9524
X6.086Y-4.936
X6.0861Y-4.2604
X6.0881Y-1.826
X6.0901Y-1.918
X6.0941Y-2.226
X6.118Y-2.514
X6.118Y-3.192
X6.146Y-4.902
X6.1461Y-4.2264
X6.1541Y-2.192
X6.158Y-2.5711
X6.158Y-3.2491
X6.176Y-2.76
X6.176Y-3.438
X6.178Y-2.8473
X6.178Y-3.5253
X6.192Y-2.632
X6.192Y-3.31
X6.236Y-2.632
X6.236Y-3.31
T2
X3.0048Y-3.1804
X3.0048Y-3.2804
X3.0048Y-3.3804
X3.0048Y-3.4804
X3.0048Y-3.8584
X3.0048Y-3.9584
X3.0048Y-4.0584
X3.0048Y-4.1584
X3.0048Y-4.5364
X3.0048Y-4.6364
X3.0048Y-4.7364
X3.0048Y-4.8364
X3.0058Y-2.5024
X3.0058Y-2.6024
X3.0058Y-2.7024
X3.0058Y-2.8024
X3.0058Y-1.8244
X3.0058Y-1.9244
X3.0058Y-2.0244
X3.0058Y-2.1244
X3.1048Y-3.2304
X3.1048Y-3.3304
X3.1048Y-3.4304
X3.1048Y-3.5304
X3.1048Y-3.9084
X3.1048Y-4.0084
X3.1048Y-4.1084
X3.1048Y-4.2084
X3.1048Y-4.5864
X3.1048Y-4.6864
X3.1048Y-4.7864
X3.1048Y-4.8864
X3.1058Y-2.5524
X3.1058Y-2.6524
X3.1058Y-2.7524
X3.1058Y-2.8524
X3.1058Y-1.8744
X3.1058Y-1.9744
X3.1058Y-2.0744
X3.1058Y-2.1744
X4.0832Y-3.1776
X4.0832Y-3.2776
X4.0832Y-3.3776
X4.0832Y-3.4776
X4.0832Y-3.8556
X4.0832Y-3.9556
X4.0832Y-4.0556
X4.0832Y-4.1556
X4.0832Y-4.5336
X4.0832Y-4.6336
X4.0832Y-4.7336
X4.0832Y-4.8336
X4.0842Y-2.4996
X4.0842Y-2.5996
X4.0842Y-2.6996
X4.0842Y-2.7996
X4.0842Y-1.8216
X4.0842Y-1.9216
X4.0842Y-2.0216
X4.0842Y-2.1216
X4.1832Y-3.2276
X4.1832Y-3.3276
X4.1832Y-3.4276
X4.1832Y-3.5276
X4.1832Y-3.9056
X4.1832Y-4.0056
X4.1832Y-4.1056
X4.1832Y-4.2056
X4.1832Y-4.5836
X4.1832Y-4.6836
X4.1832Y-4.7836
X4.1832Y-4.8836
X4.1842Y-2.5496
X4.1842Y-2.6496
X4.1842Y-2.7496
X4.1842Y-2.8496
X4.1842Y-1.8716
X4.1842Y-1.9716
X4.1842Y-2.0716
X4.1842Y-2.1716
X5.3268Y-4.5344
X5.3268Y-4.6344
X5.3268Y-4.7344
X5.3268Y-4.8344
X5.3269Y-3.8588
X5.3269Y-3.9588
X5.3269Y-4.0588
X5.3269Y-4.1588
X5.3349Y-1.8244
X5.3349Y-1.9244
X5.3349Y-2.0244
X5.3349Y-2.1244
X5.3388Y-2.5024
X5.3388Y-2.6024
X5.3388Y-2.7024
X5.3388Y-2.8024
X5.3388Y-3.1804
X5.3388Y-3.2804
X5.3388Y-3.3804
X5.3388Y-3.4804
X5.4268Y-4.5844
X5.4268Y-4.6844
X5.4268Y-4.7844
X5.4268Y-4.8844
X5.4269Y-3.9088
X5.4269Y-4.0088
X5.4269Y-4.1088
X5.4269Y-4.2088
X5.4349Y-1.8744
X5.4349Y-1.9744
X5.4349Y-2.0744
X5.4349Y-2.1744
X5.4388Y-2.5524
X5.4388Y-2.6524
X5.4388Y-2.7524
X5.4388Y-2.8524
X5.4388Y-3.2304
X5.4388Y-3.3304
X5.4388Y-3.4304
X5.4388Y-3.5304
T3
X3.329Y-3.074
X3.329Y-3.374
X3.329Y-3.752
X3.329Y-4.052
X3.329Y-4.43
X3.329Y-4.73
X3.33Y-2.396
X3.33Y-2.696
X3.33Y-1.718
X3.33Y-2.018
X3.429Y-3.074
X3.429Y-3.374
X3.429Y-3.752
X3.429Y-4.052
X3.429Y-4.43
X3.429Y-4.73
X3.43Y-2.396
X3.43Y-2.696
X3.43Y-1.718
X3.43Y-2.018
X3.529Y-3.074
X3.529Y-3.374
X3.529Y-3.752
X3.529Y-4.052
X3.529Y-4.43
X3.529Y-4.73
X3.53Y-2.396
X3.53Y-2.696
X3.53Y-1.718
X3.53Y-2.018
X3.629Y-3.074
X3.629Y-3.374
X3.629Y-3.752
X3.629Y-4.052
X3.629Y-4.43
X3.629Y-4.73
X3.63Y-2.396
X3.63Y-2.696
X3.63Y-1.718
X3.63Y-2.018
X3.729Y-3.074
X3.729Y-3.374
X3.729Y-3.752
X3.729Y-4.052
X3.729Y-4.43
X3.729Y-4.73
X3.73Y-2.396
X3.73Y-2.696
X3.73Y-1.718
X3.73Y-2.018
X3.829Y-3.074
X3.829Y-3.374
X3.829Y-3.752
X3.829Y-4.052
X3.829Y-4.43
X3.829Y-4.73
X3.83Y-2.396
X3.83Y-2.696
X3.83Y-1.718
X3.83Y-2.018
X5.663Y-2.396
X5.663Y-2.696
X5.663Y-3.074
X5.663Y-3.374
X5.681Y-4.688
X5.681Y-4.988
X5.6811Y-4.0124
X5.6811Y-4.3124
X5.6891Y-1.978
X5.6891Y-2.278
X5.763Y-2.396
X5.763Y-2.696
X5.763Y-3.074
X5.763Y-3.374
X5.781Y-4.688
X5.781Y-4.988
X5.7811Y-4.0124
X5.7811Y-4.3124
X5.7891Y-1.978
X5.7891Y-2.278
X5.863Y-2.396
X5.863Y-2.696
X5.863Y-3.074
X5.863Y-3.374
X5.881Y-4.688
X5.881Y-4.988
X5.8811Y-4.0124
X5.8811Y-4.3124
X5.8891Y-1.978
X5.8891Y-2.278
X5.963Y-2.396
X5.963Y-2.696
X5.963Y-3.074
X5.963Y-3.374
X5.981Y-4.688
X5.981Y-4.988
X5.9811Y-4.0124
X5.9811Y-4.3124
X5.9891Y-1.978
X5.9891Y-2.278
X6.063Y-2.396
X6.063Y-2.696
X6.063Y-3.074
X6.063Y-3.374
X6.081Y-4.688
X6.081Y-4.988
X6.0811Y-4.0124
X6.0811Y-4.3124
X6.0891Y-1.978
X6.0891Y-2.278
X6.163Y-2.396
X6.163Y-2.696
X6.163Y-3.074
X6.163Y-3.374
X6.181Y-4.688
X6.181Y-4.988
X6.1811Y-4.0124
X6.1811Y-4.3124
X6.1891Y-1.978
X6.1891Y-2.278
T4
X3.244Y-3.604
X3.244Y-4.282
X3.244Y-4.96
X3.245Y-2.926
X3.245Y-2.248
X3.344Y-3.604
X3.344Y-4.282
X3.344Y-4.96
X3.345Y-2.926
X3.345Y-2.248
X3.444Y-3.604
X3.444Y-4.282
X3.444Y-4.96
X3.445Y-2.926
X3.445Y-2.248
X3.544Y-3.604
X3.544Y-4.282
X3.544Y-4.96
X3.545Y-2.926
X3.545Y-2.248
X3.644Y-3.604
X3.644Y-4.282
X3.644Y-4.96
X3.645Y-2.926
X3.645Y-2.248
X3.744Y-3.604
X3.744Y-4.282
X3.744Y-4.96
X3.745Y-2.926
X3.745Y-2.248
X3.844Y-3.604
X3.844Y-4.282
X3.844Y-4.96
X3.845Y-2.926
X3.845Y-2.248
X3.944Y-3.604
X3.944Y-4.282
X3.944Y-4.96
X3.945Y-2.926
X3.945Y-2.248
X5.566Y-4.458
X5.5661Y-3.7824
X5.5741Y-1.748
X5.578Y-2.926
X5.578Y-3.604
X5.666Y-4.458
X5.6661Y-3.7824
X5.6741Y-1.748
X5.678Y-2.926
X5.678Y-3.604
X5.766Y-4.458
X5.7661Y-3.7824
X5.7741Y-1.748
X5.778Y-2.926
X5.778Y-3.604
X5.866Y-4.458
X5.8661Y-3.7824
X5.8741Y-1.748
X5.878Y-2.926
X5.878Y-3.604
X5.966Y-4.458
X5.9661Y-3.7824
X5.9741Y-1.748
X5.978Y-2.926
X5.978Y-3.604
X6.066Y-4.458
X6.0661Y-3.7824
X6.0741Y-1.748
X6.078Y-2.926
X6.078Y-3.604
X6.166Y-4.458
X6.1661Y-3.7824
X6.1741Y-1.748
X6.178Y-2.926
X6.178Y-3.604
X6.266Y-4.458
X6.2661Y-3.7824
X6.2741Y-1.748
X6.278Y-2.926
X6.278Y-3.604
T0
M30
