%TF.GenerationSoftware,KiCad,Pcbnew,(6.0.1)*%
%TF.CreationDate,2022-05-22T10:14:18-05:00*%
%TF.ProjectId,modulo,6d6f6475-6c6f-42e6-9b69-6361645f7063,rev?*%
%TF.SameCoordinates,Original*%
%TF.FileFunction,Profile,NP*%
%FSLAX46Y46*%
G04 Gerber Fmt 4.6, Leading zero omitted, Abs format (unit mm)*
G04 Created by KiCad (PCBNEW (6.0.1)) date 2022-05-22 10:14:18*
%MOMM*%
%LPD*%
G01*
G04 APERTURE LIST*
%TA.AperFunction,Profile*%
%ADD10C,0.050000*%
%TD*%
G04 APERTURE END LIST*
D10*
X61645757Y-59385200D02*
X120878557Y-59385200D01*
X120878557Y-59385200D02*
X120878557Y-76555600D01*
X120878557Y-76555600D02*
X61645757Y-76555600D01*
X61645757Y-76555600D02*
X61645757Y-59385200D01*
X61645800Y-37436800D02*
X161645800Y-37436800D01*
X161645800Y-37436800D02*
X161645800Y-42164000D01*
X161645800Y-42164000D02*
X61645800Y-42164000D01*
X61645800Y-42164000D02*
X61645800Y-37436800D01*
X161441738Y-111006096D02*
X120852538Y-111006096D01*
X120852538Y-111006096D02*
X120852538Y-93835696D01*
X120852538Y-93835696D02*
X161441738Y-93835696D01*
X161441738Y-93835696D02*
X161441738Y-111006096D01*
X61620400Y-111048800D02*
X120853200Y-111048800D01*
X120853200Y-111048800D02*
X120853200Y-128219200D01*
X120853200Y-128219200D02*
X61620400Y-128219200D01*
X61620400Y-128219200D02*
X61620400Y-111048800D01*
X61620400Y-128219200D02*
X161620400Y-128219200D01*
X161620400Y-128219200D02*
X161620400Y-133810000D01*
X161620400Y-133810000D02*
X61620400Y-133810000D01*
X61620400Y-133810000D02*
X61620400Y-128219200D01*
X161645800Y-59334400D02*
X121056600Y-59334400D01*
X121056600Y-59334400D02*
X121056600Y-42164000D01*
X121056600Y-42164000D02*
X161645800Y-42164000D01*
X161645800Y-42164000D02*
X161645800Y-59334400D01*
X120878557Y-59385200D02*
X161640000Y-59385200D01*
X161640000Y-59385200D02*
X161640000Y-76555600D01*
X161640000Y-76555600D02*
X120878557Y-76555600D01*
X120878557Y-76555600D02*
X120878557Y-59385200D01*
X161439616Y-128167308D02*
X120850416Y-128167308D01*
X120850416Y-128167308D02*
X120850416Y-110996908D01*
X120850416Y-110996908D02*
X161439616Y-110996908D01*
X161439616Y-110996908D02*
X161439616Y-128167308D01*
X61620400Y-76607583D02*
X120853200Y-76607583D01*
X120853200Y-76607583D02*
X120853200Y-93777983D01*
X120853200Y-93777983D02*
X61620400Y-93777983D01*
X61620400Y-93777983D02*
X61620400Y-76607583D01*
X61620400Y-93827600D02*
X120853200Y-93827600D01*
X120853200Y-93827600D02*
X120853200Y-110998000D01*
X120853200Y-110998000D02*
X61620400Y-110998000D01*
X61620400Y-110998000D02*
X61620400Y-93827600D01*
X120878557Y-76606400D02*
X161640000Y-76606400D01*
X161640000Y-76606400D02*
X161640000Y-93776800D01*
X161640000Y-93776800D02*
X120878557Y-93776800D01*
X120878557Y-93776800D02*
X120878557Y-76606400D01*
X61645800Y-42164000D02*
X120878600Y-42164000D01*
X120878600Y-42164000D02*
X120878600Y-59334400D01*
X120878600Y-59334400D02*
X61645800Y-59334400D01*
X61645800Y-59334400D02*
X61645800Y-42164000D01*
M02*
