M48
; DRILL file {KiCad (6.0.1)} date Sun May 22 10:14:20 2022
; FORMAT={-:-/ absolute / inch / decimal}
; #@! TF.CreationDate,2022-05-22T10:14:20-05:00
; #@! TF.GenerationSoftware,Kicad,Pcbnew,(6.0.1)
; #@! TF.FileFunction,NonPlated,1,2,NPTH
FMAT,2
INCH
; #@! TA.AperFunction,NonPlated,NPTH,ComponentDrill
T1C0.1260
%
G90
G05
T1
X2.7548Y-3.1304
X2.7548Y-3.5804
X2.7548Y-3.8084
X2.7548Y-4.2584
X2.7548Y-4.4864
X2.7548Y-4.9364
X2.7558Y-2.4524
X2.7558Y-2.9024
X2.7558Y-1.7744
X2.7558Y-2.2244
X4.4332Y-3.1276
X4.4332Y-3.5776
X4.4332Y-3.8056
X4.4332Y-4.2556
X4.4332Y-4.4836
X4.4332Y-4.9336
X4.4342Y-2.4496
X4.4342Y-2.8996
X4.4342Y-1.7716
X4.4342Y-2.2216
X5.0768Y-4.4844
X5.0768Y-4.9344
X5.0769Y-3.8088
X5.0769Y-4.2588
X5.0849Y-1.7744
X5.0849Y-2.2244
X5.0888Y-2.4524
X5.0888Y-2.9024
X5.0888Y-3.1304
X5.0888Y-3.5804
T0
M30
