%TF.GenerationSoftware,KiCad,Pcbnew,(6.0.1)*%
%TF.CreationDate,2022-05-21T12:13:39-05:00*%
%TF.ProjectId,esp32_2,65737033-325f-4322-9e6b-696361645f70,rev?*%
%TF.SameCoordinates,Original*%
%TF.FileFunction,Soldermask,Top*%
%TF.FilePolarity,Negative*%
%FSLAX46Y46*%
G04 Gerber Fmt 4.6, Leading zero omitted, Abs format (unit mm)*
G04 Created by KiCad (PCBNEW (6.0.1)) date 2022-05-21 12:13:39*
%MOMM*%
%LPD*%
G01*
G04 APERTURE LIST*
G04 Aperture macros list*
%AMRoundRect*
0 Rectangle with rounded corners*
0 $1 Rounding radius*
0 $2 $3 $4 $5 $6 $7 $8 $9 X,Y pos of 4 corners*
0 Add a 4 corners polygon primitive as box body*
4,1,4,$2,$3,$4,$5,$6,$7,$8,$9,$2,$3,0*
0 Add four circle primitives for the rounded corners*
1,1,$1+$1,$2,$3*
1,1,$1+$1,$4,$5*
1,1,$1+$1,$6,$7*
1,1,$1+$1,$8,$9*
0 Add four rect primitives between the rounded corners*
20,1,$1+$1,$2,$3,$4,$5,0*
20,1,$1+$1,$4,$5,$6,$7,0*
20,1,$1+$1,$6,$7,$8,$9,0*
20,1,$1+$1,$8,$9,$2,$3,0*%
G04 Aperture macros list end*
%ADD10R,1.700000X1.700000*%
%ADD11O,1.700000X1.700000*%
%ADD12RoundRect,0.250001X0.462499X0.624999X-0.462499X0.624999X-0.462499X-0.624999X0.462499X-0.624999X0*%
%ADD13RoundRect,0.250001X-0.462499X-0.624999X0.462499X-0.624999X0.462499X0.624999X-0.462499X0.624999X0*%
%ADD14RoundRect,0.250000X0.475000X-0.337500X0.475000X0.337500X-0.475000X0.337500X-0.475000X-0.337500X0*%
%ADD15RoundRect,0.250000X-0.475000X0.337500X-0.475000X-0.337500X0.475000X-0.337500X0.475000X0.337500X0*%
%ADD16C,3.200000*%
%ADD17R,1.500000X1.500000*%
%ADD18C,1.500000*%
%ADD19RoundRect,0.250000X-0.350000X-0.450000X0.350000X-0.450000X0.350000X0.450000X-0.350000X0.450000X0*%
%ADD20RoundRect,0.250000X-0.337500X-0.475000X0.337500X-0.475000X0.337500X0.475000X-0.337500X0.475000X0*%
%ADD21RoundRect,0.250000X-1.825000X-0.700000X1.825000X-0.700000X1.825000X0.700000X-1.825000X0.700000X0*%
%ADD22R,3.200000X1.000000*%
%ADD23RoundRect,0.250000X-0.450000X0.350000X-0.450000X-0.350000X0.450000X-0.350000X0.450000X0.350000X0*%
%ADD24R,5.000000X2.500000*%
%ADD25RoundRect,0.250000X0.450000X-0.350000X0.450000X0.350000X-0.450000X0.350000X-0.450000X-0.350000X0*%
%ADD26R,2.000000X0.900000*%
%ADD27R,0.900000X2.000000*%
%ADD28R,5.000000X5.000000*%
%ADD29R,1.600000X1.600000*%
%ADD30O,1.600000X1.600000*%
%ADD31RoundRect,0.250001X1.074999X2.324999X-1.074999X2.324999X-1.074999X-2.324999X1.074999X-2.324999X0*%
%ADD32C,1.440000*%
%ADD33R,4.600000X1.100000*%
%ADD34R,9.400000X10.800000*%
G04 APERTURE END LIST*
D10*
%TO.C,Espalda*%
X144561800Y-82854800D03*
D11*
X142021800Y-82854800D03*
X139481800Y-82854800D03*
X136941800Y-82854800D03*
X134401800Y-82854800D03*
X131861800Y-82854800D03*
X129321800Y-82854800D03*
X126781800Y-82854800D03*
%TD*%
D12*
%TO.C,TRANS*%
X168009900Y-57658000D03*
X165034900Y-57658000D03*
%TD*%
%TO.C,COM*%
X167908300Y-62585600D03*
X164933300Y-62585600D03*
%TD*%
D13*
%TO.C,D1*%
X102398500Y-56591200D03*
X105373500Y-56591200D03*
%TD*%
D14*
%TO.C,C4*%
X136144000Y-58695500D03*
X136144000Y-56620500D03*
%TD*%
%TO.C,C1*%
X128879600Y-58695500D03*
X128879600Y-56620500D03*
%TD*%
D10*
%TO.C,N_batt1*%
X102768400Y-104343200D03*
%TD*%
D15*
%TO.C,C3*%
X138176000Y-66018500D03*
X138176000Y-68093500D03*
%TD*%
D16*
%TO.C,M_izq1*%
X90571000Y-113700500D03*
X90571000Y-125130500D03*
D17*
X96921000Y-114970500D03*
D18*
X99461000Y-116240500D03*
X96921000Y-117510500D03*
X99461000Y-118780500D03*
X96921000Y-120050500D03*
X99461000Y-121320500D03*
X96921000Y-122590500D03*
X99461000Y-123860500D03*
%TD*%
D14*
%TO.C,C2*%
X179705000Y-76221500D03*
X179705000Y-74146500D03*
%TD*%
D19*
%TO.C,R18*%
X172117000Y-62585600D03*
X174117000Y-62585600D03*
%TD*%
D16*
%TO.C,Cabeza1*%
X110200500Y-51836000D03*
X121630500Y-51836000D03*
D17*
X120360500Y-58186000D03*
D18*
X119090500Y-60726000D03*
X117820500Y-58186000D03*
X116550500Y-60726000D03*
X115280500Y-58186000D03*
X114010500Y-60726000D03*
X112740500Y-58186000D03*
X111470500Y-60726000D03*
%TD*%
D16*
%TO.C,M_der1*%
X174371000Y-105410000D03*
X174371000Y-93980000D03*
D17*
X168021000Y-104140000D03*
D18*
X165481000Y-102870000D03*
X168021000Y-101600000D03*
X165481000Y-100330000D03*
X168021000Y-99060000D03*
X165481000Y-97790000D03*
X168021000Y-96520000D03*
X165481000Y-95250000D03*
%TD*%
D16*
%TO.C,P_izq1*%
X118780500Y-135870000D03*
X107350500Y-135870000D03*
D17*
X108620500Y-129520000D03*
D18*
X109890500Y-126980000D03*
X111160500Y-129520000D03*
X112430500Y-126980000D03*
X113700500Y-129520000D03*
X114970500Y-126980000D03*
X116240500Y-129520000D03*
X117510500Y-126980000D03*
%TD*%
D20*
%TO.C,CFF1*%
X97514500Y-60579000D03*
X99589500Y-60579000D03*
%TD*%
D21*
%TO.C,C_out_35v1*%
X85679000Y-53848000D03*
X92629000Y-53848000D03*
%TD*%
D22*
%TO.C,Reset1*%
X133448000Y-64802000D03*
X126648000Y-64802000D03*
X133448000Y-68802000D03*
X126648000Y-68802000D03*
%TD*%
D23*
%TO.C,R19*%
X98044000Y-55134000D03*
X98044000Y-57134000D03*
%TD*%
D24*
%TO.C,L1_SMD1*%
X91767000Y-86006000D03*
X91767000Y-73506000D03*
%TD*%
D10*
%TO.C,Control_voltaje1*%
X132029200Y-52984400D03*
D11*
X129489200Y-52984400D03*
%TD*%
D25*
%TO.C,R20*%
X103124000Y-72882000D03*
X103124000Y-70882000D03*
%TD*%
D19*
%TO.C,R16*%
X132858000Y-74168000D03*
X134858000Y-74168000D03*
%TD*%
D25*
%TO.C,R15*%
X163449000Y-81264000D03*
X163449000Y-79264000D03*
%TD*%
D26*
%TO.C,ESP32*%
X142884000Y-56685000D03*
X142884000Y-57955000D03*
X142884000Y-59225000D03*
X142884000Y-60495000D03*
X142884000Y-61765000D03*
X142884000Y-63035000D03*
X142884000Y-64305000D03*
X142884000Y-65575000D03*
X142884000Y-66845000D03*
X142884000Y-68115000D03*
X142884000Y-69385000D03*
X142884000Y-70655000D03*
X142884000Y-71925000D03*
X142884000Y-73195000D03*
D27*
X145669000Y-74195000D03*
X146939000Y-74195000D03*
X148209000Y-74195000D03*
X149479000Y-74195000D03*
X150749000Y-74195000D03*
X152019000Y-74195000D03*
X153289000Y-74195000D03*
X154559000Y-74195000D03*
X155829000Y-74195000D03*
X157099000Y-74195000D03*
D26*
X159884000Y-73195000D03*
X159884000Y-71925000D03*
X159884000Y-70655000D03*
X159884000Y-69385000D03*
X159884000Y-68115000D03*
X159884000Y-66845000D03*
X159884000Y-65575000D03*
X159884000Y-64305000D03*
X159884000Y-63035000D03*
X159884000Y-61765000D03*
X159884000Y-60495000D03*
X159884000Y-59225000D03*
X159884000Y-57955000D03*
X159884000Y-56685000D03*
D28*
X150384000Y-64185000D03*
%TD*%
D29*
%TO.C,off/on*%
X96816500Y-48514000D03*
D30*
X104436500Y-48514000D03*
%TD*%
D16*
%TO.C,P_der1*%
X151165500Y-135743000D03*
X162595500Y-135743000D03*
D17*
X152435500Y-129393000D03*
D18*
X153705500Y-126853000D03*
X154975500Y-129393000D03*
X156245500Y-126853000D03*
X157515500Y-129393000D03*
X158785500Y-126853000D03*
X160055500Y-129393000D03*
X161325500Y-126853000D03*
%TD*%
D31*
%TO.C,D1SMD1*%
X110336000Y-80264000D03*
X103786000Y-80264000D03*
%TD*%
D10*
%TO.C,P_Batt1*%
X87376000Y-104495600D03*
%TD*%
D21*
%TO.C,C_in_50V_470*%
X87076000Y-95631000D03*
X94026000Y-95631000D03*
%TD*%
D32*
%TO.C,RV1*%
X97272000Y-66040000D03*
X99812000Y-66040000D03*
X102352000Y-66040000D03*
%TD*%
D33*
%TO.C,U1*%
X103245000Y-88802000D03*
X103245000Y-90502000D03*
X103245000Y-92202000D03*
D34*
X112395000Y-92202000D03*
D33*
X103245000Y-93902000D03*
X103245000Y-95602000D03*
%TD*%
D19*
%TO.C,R17*%
X172117000Y-57785000D03*
X174117000Y-57785000D03*
%TD*%
D22*
%TO.C,Boot/flash1*%
X167796000Y-77311000D03*
X174596000Y-77311000D03*
X174596000Y-73311000D03*
X167796000Y-73311000D03*
%TD*%
D10*
%TO.C,Programador1*%
X180543200Y-57409000D03*
D11*
X180543200Y-59949000D03*
X180543200Y-62489000D03*
X180543200Y-65029000D03*
X180543200Y-67569000D03*
%TD*%
M02*
