%TF.GenerationSoftware,KiCad,Pcbnew,(6.0.1)*%
%TF.CreationDate,2022-05-21T12:13:39-05:00*%
%TF.ProjectId,esp32_2,65737033-325f-4322-9e6b-696361645f70,rev?*%
%TF.SameCoordinates,Original*%
%TF.FileFunction,Paste,Top*%
%TF.FilePolarity,Positive*%
%FSLAX46Y46*%
G04 Gerber Fmt 4.6, Leading zero omitted, Abs format (unit mm)*
G04 Created by KiCad (PCBNEW (6.0.1)) date 2022-05-21 12:13:39*
%MOMM*%
%LPD*%
G01*
G04 APERTURE LIST*
G04 Aperture macros list*
%AMRoundRect*
0 Rectangle with rounded corners*
0 $1 Rounding radius*
0 $2 $3 $4 $5 $6 $7 $8 $9 X,Y pos of 4 corners*
0 Add a 4 corners polygon primitive as box body*
4,1,4,$2,$3,$4,$5,$6,$7,$8,$9,$2,$3,0*
0 Add four circle primitives for the rounded corners*
1,1,$1+$1,$2,$3*
1,1,$1+$1,$4,$5*
1,1,$1+$1,$6,$7*
1,1,$1+$1,$8,$9*
0 Add four rect primitives between the rounded corners*
20,1,$1+$1,$2,$3,$4,$5,0*
20,1,$1+$1,$4,$5,$6,$7,0*
20,1,$1+$1,$6,$7,$8,$9,0*
20,1,$1+$1,$8,$9,$2,$3,0*%
G04 Aperture macros list end*
%ADD10RoundRect,0.250001X0.462499X0.624999X-0.462499X0.624999X-0.462499X-0.624999X0.462499X-0.624999X0*%
%ADD11RoundRect,0.250001X-0.462499X-0.624999X0.462499X-0.624999X0.462499X0.624999X-0.462499X0.624999X0*%
%ADD12RoundRect,0.250000X0.475000X-0.337500X0.475000X0.337500X-0.475000X0.337500X-0.475000X-0.337500X0*%
%ADD13RoundRect,0.250000X-0.475000X0.337500X-0.475000X-0.337500X0.475000X-0.337500X0.475000X0.337500X0*%
%ADD14RoundRect,0.250000X-0.350000X-0.450000X0.350000X-0.450000X0.350000X0.450000X-0.350000X0.450000X0*%
%ADD15RoundRect,0.250000X-0.337500X-0.475000X0.337500X-0.475000X0.337500X0.475000X-0.337500X0.475000X0*%
%ADD16RoundRect,0.250000X-1.825000X-0.700000X1.825000X-0.700000X1.825000X0.700000X-1.825000X0.700000X0*%
%ADD17R,3.200000X1.000000*%
%ADD18RoundRect,0.250000X-0.450000X0.350000X-0.450000X-0.350000X0.450000X-0.350000X0.450000X0.350000X0*%
%ADD19R,5.000000X2.500000*%
%ADD20RoundRect,0.250000X0.450000X-0.350000X0.450000X0.350000X-0.450000X0.350000X-0.450000X-0.350000X0*%
%ADD21R,2.000000X0.900000*%
%ADD22R,0.900000X2.000000*%
%ADD23R,5.000000X5.000000*%
%ADD24RoundRect,0.250001X1.074999X2.324999X-1.074999X2.324999X-1.074999X-2.324999X1.074999X-2.324999X0*%
%ADD25R,4.550000X5.250000*%
%ADD26R,4.600000X1.100000*%
G04 APERTURE END LIST*
D10*
%TO.C,TRANS*%
X168009900Y-57658000D03*
X165034900Y-57658000D03*
%TD*%
%TO.C,COM*%
X167908300Y-62585600D03*
X164933300Y-62585600D03*
%TD*%
D11*
%TO.C,D1*%
X102398500Y-56591200D03*
X105373500Y-56591200D03*
%TD*%
D12*
%TO.C,C4*%
X136144000Y-58695500D03*
X136144000Y-56620500D03*
%TD*%
%TO.C,C1*%
X128879600Y-58695500D03*
X128879600Y-56620500D03*
%TD*%
D13*
%TO.C,C3*%
X138176000Y-66018500D03*
X138176000Y-68093500D03*
%TD*%
D12*
%TO.C,C2*%
X179705000Y-76221500D03*
X179705000Y-74146500D03*
%TD*%
D14*
%TO.C,R18*%
X172117000Y-62585600D03*
X174117000Y-62585600D03*
%TD*%
D15*
%TO.C,CFF1*%
X97514500Y-60579000D03*
X99589500Y-60579000D03*
%TD*%
D16*
%TO.C,C_out_35v1*%
X85679000Y-53848000D03*
X92629000Y-53848000D03*
%TD*%
D17*
%TO.C,Reset1*%
X133448000Y-64802000D03*
X126648000Y-64802000D03*
X133448000Y-68802000D03*
X126648000Y-68802000D03*
%TD*%
D18*
%TO.C,R19*%
X98044000Y-55134000D03*
X98044000Y-57134000D03*
%TD*%
D19*
%TO.C,L1_SMD1*%
X91767000Y-86006000D03*
X91767000Y-73506000D03*
%TD*%
D20*
%TO.C,R20*%
X103124000Y-72882000D03*
X103124000Y-70882000D03*
%TD*%
D14*
%TO.C,R16*%
X132858000Y-74168000D03*
X134858000Y-74168000D03*
%TD*%
D20*
%TO.C,R15*%
X163449000Y-81264000D03*
X163449000Y-79264000D03*
%TD*%
D21*
%TO.C,ESP32*%
X142884000Y-56685000D03*
X142884000Y-57955000D03*
X142884000Y-59225000D03*
X142884000Y-60495000D03*
X142884000Y-61765000D03*
X142884000Y-63035000D03*
X142884000Y-64305000D03*
X142884000Y-65575000D03*
X142884000Y-66845000D03*
X142884000Y-68115000D03*
X142884000Y-69385000D03*
X142884000Y-70655000D03*
X142884000Y-71925000D03*
X142884000Y-73195000D03*
D22*
X145669000Y-74195000D03*
X146939000Y-74195000D03*
X148209000Y-74195000D03*
X149479000Y-74195000D03*
X150749000Y-74195000D03*
X152019000Y-74195000D03*
X153289000Y-74195000D03*
X154559000Y-74195000D03*
X155829000Y-74195000D03*
X157099000Y-74195000D03*
D21*
X159884000Y-73195000D03*
X159884000Y-71925000D03*
X159884000Y-70655000D03*
X159884000Y-69385000D03*
X159884000Y-68115000D03*
X159884000Y-66845000D03*
X159884000Y-65575000D03*
X159884000Y-64305000D03*
X159884000Y-63035000D03*
X159884000Y-61765000D03*
X159884000Y-60495000D03*
X159884000Y-59225000D03*
X159884000Y-57955000D03*
X159884000Y-56685000D03*
D23*
X150384000Y-64185000D03*
%TD*%
D24*
%TO.C,D1SMD1*%
X110336000Y-80264000D03*
X103786000Y-80264000D03*
%TD*%
D16*
%TO.C,C_in_50V_470*%
X87076000Y-95631000D03*
X94026000Y-95631000D03*
%TD*%
D25*
%TO.C,U1*%
X109970000Y-89427000D03*
X114820000Y-94977000D03*
X109970000Y-94977000D03*
X114820000Y-89427000D03*
D26*
X103245000Y-88802000D03*
X103245000Y-90502000D03*
X103245000Y-92202000D03*
X103245000Y-93902000D03*
X103245000Y-95602000D03*
%TD*%
D14*
%TO.C,R17*%
X172117000Y-57785000D03*
X174117000Y-57785000D03*
%TD*%
D17*
%TO.C,Boot/flash1*%
X167796000Y-77311000D03*
X174596000Y-77311000D03*
X174596000Y-73311000D03*
X167796000Y-73311000D03*
%TD*%
M02*
