M48
; DRILL file {KiCad (6.0.1)} date Sat May 21 12:13:41 2022
; FORMAT={-:-/ absolute / inch / decimal}
; #@! TF.CreationDate,2022-05-21T12:13:41-05:00
; #@! TF.GenerationSoftware,Kicad,Pcbnew,(6.0.1)
; #@! TF.FileFunction,Plated,1,2,PTH
FMAT,2
INCH
; #@! TA.AperFunction,Plated,PTH,ViaDrill
T1C0.0157
; #@! TA.AperFunction,Plated,PTH,ComponentDrill
T2C0.0299
; #@! TA.AperFunction,Plated,PTH,ComponentDrill
T3C0.0315
; #@! TA.AperFunction,Plated,PTH,ComponentDrill
T4C0.0394
%
G90
G05
T1
X3.35Y-2.545
X3.44Y-2.545
X3.52Y-2.545
X3.615Y-3.48
X3.715Y-3.57
X3.775Y-4.115
X3.84Y-4.115
X3.9Y-3.64
X3.905Y-4.115
X3.93Y-2.905
X3.96Y-3.185
X3.965Y-3.39
X4.32Y-2.91
X4.41Y-2.905
X4.505Y-2.905
X4.895Y-2.995
X4.955Y-2.415
X5.01Y-2.415
X5.065Y-2.415
X5.075Y-5.335
X5.118Y-2.956
X5.1513Y-2.7087
X5.155Y-5.335
X5.1971Y-2.8483
X5.235Y-5.34
X5.495Y-2.885
X5.4974Y-2.9674
X5.625Y-4.24
X5.71Y-4.24
X5.82Y-4.245
X5.9648Y-3.1698
X6.005Y-3.24
X6.06Y-3.305
X6.1349Y-2.9997
X6.15Y-3.135
X6.36Y-2.735
X6.365Y-2.685
X6.37Y-2.85
X6.37Y-2.985
X6.4102Y-2.7448
X6.492Y-3.378
X6.495Y-3.47
X6.52Y-2.775
X6.52Y-2.95
X6.5265Y-4.615
X6.5265Y-4.56
X6.535Y-3.355
X6.5442Y-4.2
X6.5935Y-3.155
X6.6012Y-4.545
X6.6192Y-3.1252
X6.6435Y-4.49
X6.665Y-2.085
X6.67Y-3.315
X6.67Y-3.39
X6.675Y-3.47
X6.6907Y-4.505
X6.73Y-2.77
X6.73Y-2.915
X6.74Y-2.085
X6.86Y-4.845
X6.865Y-3.375
X6.925Y-3.375
X6.995Y-3.375
X7.114Y-2.778
T2
X3.8158Y-4.5264
X3.8158Y-4.6264
X3.8158Y-4.7264
X3.8158Y-4.8264
X3.9158Y-4.5764
X3.9158Y-4.6764
X3.9158Y-4.7764
X3.9158Y-4.8764
X4.2764Y-5.0992
X4.3264Y-4.9992
X4.3764Y-5.0992
X4.3886Y-2.3908
X4.4264Y-4.9992
X4.4386Y-2.2908
X4.4764Y-5.0992
X4.4886Y-2.3908
X4.5264Y-4.9992
X4.5386Y-2.2908
X4.5764Y-5.0992
X4.5886Y-2.3908
X4.6264Y-4.9992
X4.6386Y-2.2908
X4.6886Y-2.3908
X4.7386Y-2.2908
X6.0014Y-5.0942
X6.0514Y-4.9942
X6.1014Y-5.0942
X6.1514Y-4.9942
X6.2014Y-5.0942
X6.2514Y-4.9942
X6.3014Y-5.0942
X6.3514Y-4.9942
X6.515Y-3.75
X6.515Y-3.85
X6.515Y-3.95
X6.515Y-4.05
X6.615Y-3.8
X6.615Y-3.9
X6.615Y-4.0
X6.615Y-4.1
T3
X3.8117Y-1.91
X3.8296Y-2.6
X3.9296Y-2.6
X4.0296Y-2.6
X4.1117Y-1.91
T4
X3.44Y-4.114
X4.046Y-4.108
X4.9914Y-3.262
X5.0914Y-3.262
X5.098Y-2.086
X5.1914Y-3.262
X5.198Y-2.086
X5.2914Y-3.262
X5.3914Y-3.262
X5.4914Y-3.262
X5.5914Y-3.262
X5.6914Y-3.262
X7.108Y-2.2602
X7.108Y-2.3602
X7.108Y-2.4602
X7.108Y-2.5602
X7.108Y-2.6602
T0
M30
