%TF.GenerationSoftware,KiCad,Pcbnew,(6.0.1)*%
%TF.CreationDate,2022-05-21T12:13:39-05:00*%
%TF.ProjectId,esp32_2,65737033-325f-4322-9e6b-696361645f70,rev?*%
%TF.SameCoordinates,Original*%
%TF.FileFunction,Soldermask,Bot*%
%TF.FilePolarity,Negative*%
%FSLAX46Y46*%
G04 Gerber Fmt 4.6, Leading zero omitted, Abs format (unit mm)*
G04 Created by KiCad (PCBNEW (6.0.1)) date 2022-05-21 12:13:39*
%MOMM*%
%LPD*%
G01*
G04 APERTURE LIST*
%ADD10R,1.700000X1.700000*%
%ADD11O,1.700000X1.700000*%
%ADD12C,3.200000*%
%ADD13R,1.500000X1.500000*%
%ADD14C,1.500000*%
%ADD15R,1.600000X1.600000*%
%ADD16O,1.600000X1.600000*%
%ADD17C,1.440000*%
G04 APERTURE END LIST*
D10*
%TO.C,Espalda*%
X144561800Y-82854800D03*
D11*
X142021800Y-82854800D03*
X139481800Y-82854800D03*
X136941800Y-82854800D03*
X134401800Y-82854800D03*
X131861800Y-82854800D03*
X129321800Y-82854800D03*
X126781800Y-82854800D03*
%TD*%
D10*
%TO.C,N_batt1*%
X102768400Y-104343200D03*
%TD*%
D12*
%TO.C,M_izq1*%
X90571000Y-113700500D03*
X90571000Y-125130500D03*
D13*
X96921000Y-114970500D03*
D14*
X99461000Y-116240500D03*
X96921000Y-117510500D03*
X99461000Y-118780500D03*
X96921000Y-120050500D03*
X99461000Y-121320500D03*
X96921000Y-122590500D03*
X99461000Y-123860500D03*
%TD*%
D12*
%TO.C,Cabeza1*%
X110200500Y-51836000D03*
X121630500Y-51836000D03*
D13*
X120360500Y-58186000D03*
D14*
X119090500Y-60726000D03*
X117820500Y-58186000D03*
X116550500Y-60726000D03*
X115280500Y-58186000D03*
X114010500Y-60726000D03*
X112740500Y-58186000D03*
X111470500Y-60726000D03*
%TD*%
D12*
%TO.C,M_der1*%
X174371000Y-105410000D03*
X174371000Y-93980000D03*
D13*
X168021000Y-104140000D03*
D14*
X165481000Y-102870000D03*
X168021000Y-101600000D03*
X165481000Y-100330000D03*
X168021000Y-99060000D03*
X165481000Y-97790000D03*
X168021000Y-96520000D03*
X165481000Y-95250000D03*
%TD*%
D12*
%TO.C,P_izq1*%
X118780500Y-135870000D03*
X107350500Y-135870000D03*
D13*
X108620500Y-129520000D03*
D14*
X109890500Y-126980000D03*
X111160500Y-129520000D03*
X112430500Y-126980000D03*
X113700500Y-129520000D03*
X114970500Y-126980000D03*
X116240500Y-129520000D03*
X117510500Y-126980000D03*
%TD*%
D10*
%TO.C,Control_voltaje1*%
X132029200Y-52984400D03*
D11*
X129489200Y-52984400D03*
%TD*%
D15*
%TO.C,off/on*%
X96816500Y-48514000D03*
D16*
X104436500Y-48514000D03*
%TD*%
D12*
%TO.C,P_der1*%
X151165500Y-135743000D03*
X162595500Y-135743000D03*
D13*
X152435500Y-129393000D03*
D14*
X153705500Y-126853000D03*
X154975500Y-129393000D03*
X156245500Y-126853000D03*
X157515500Y-129393000D03*
X158785500Y-126853000D03*
X160055500Y-129393000D03*
X161325500Y-126853000D03*
%TD*%
D10*
%TO.C,P_Batt1*%
X87376000Y-104495600D03*
%TD*%
D17*
%TO.C,RV1*%
X97272000Y-66040000D03*
X99812000Y-66040000D03*
X102352000Y-66040000D03*
%TD*%
D10*
%TO.C,Programador1*%
X180543200Y-57409000D03*
D11*
X180543200Y-59949000D03*
X180543200Y-62489000D03*
X180543200Y-65029000D03*
X180543200Y-67569000D03*
%TD*%
M02*
